<svg preserveAspectRatio="none" width="100%" height="100%" overflow="visible" style="display: block;" viewBox="0 0 20 19.5191" fill="none" xmlns="http://www.w3.org/2000/svg">
<g id="Group 47588">
<path id="Subtract" d="M18 0C19.1046 4.89634e-07 20 0.895431 20 2V14.3633C20 15.4679 19.1046 16.3633 18 16.3633H5L0.793945 19.4229C0.463597 19.6628 0.000331918 19.4268 0 19.0186V2C2.8992e-07 0.895431 0.895431 0 2 0H18ZM5 7C4.17157 7 3.5 7.67157 3.5 8.5C3.5 9.32843 4.17157 10 5 10C5.82843 10 6.5 9.32843 6.5 8.5C6.5 7.67157 5.82843 7 5 7ZM10 7C9.17157 7 8.5 7.67157 8.5 8.5C8.5 9.32843 9.17157 10 10 10C10.8284 10 11.5 9.32843 11.5 8.5C11.5 7.67157 10.8284 7 10 7ZM15 7C14.1716 7 13.5 7.67157 13.5 8.5C13.5 9.32843 14.1716 10 15 10C15.8284 10 16.5 9.32843 16.5 8.5C16.5 7.67157 15.8284 7 15 7Z" fill="var(--fill-0, #F57F00)"/>
</g>
</svg>
