<svg preserveAspectRatio="none" width="100%" height="100%" overflow="visible" style="display: block;" viewBox="0 0 16.5527 16.5527" fill="none" xmlns="http://www.w3.org/2000/svg">
<path id="Union" fill-rule="evenodd" clip-rule="evenodd" d="M15.8692 4.21895C16.7805 5.13018 16.7805 6.60733 15.8692 7.51855L12.5276 10.8602C12.5008 12.388 12.1234 14.2106 10.8606 15.4735C10.6002 15.7339 10.1783 15.7339 9.91798 15.4735L5.96985 11.5254L1.13784 16.3574C0.877491 16.6177 0.455612 16.6177 0.195262 16.3574C-0.0650874 16.097 -0.0650873 15.6752 0.195262 15.4148L5.02727 10.5828L1.07915 6.63467C0.818796 6.37432 0.818796 5.95244 1.07915 5.69209C2.34202 4.42922 4.16469 4.05189 5.69249 4.02503L9.0341 0.683418C9.94532 -0.227806 11.4225 -0.227806 12.3337 0.683418L15.8692 4.21895Z" fill="var(--fill-0, #FD720F)"/>
</svg>
