<svg preserveAspectRatio="none" width="100%" height="100%" overflow="visible" style="display: block;" viewBox="0 0 18.001 17.354" fill="none" xmlns="http://www.w3.org/2000/svg">
<path id="Union" d="M6.70996 0.00295024C6.978 -0.0224388 7.24132 0.117559 7.36719 0.364278C7.67126 0.959899 8.2893 1.36611 9.00098 1.36623C9.71269 1.36605 10.3317 0.960002 10.6357 0.364278C10.7797 0.0823999 11.1022 -0.0599005 11.4072 0.0244346C12.8172 0.414811 14.0879 1.1395 15.1279 2.10647C15.3433 2.30694 15.4024 2.62567 15.2725 2.88967C15.1525 3.13301 15.085 3.4074 15.085 3.69924C15.085 4.71168 15.9055 5.53225 16.918 5.53225H16.9434L17.0527 5.53908C17.3012 5.57671 17.5117 5.75331 17.5889 5.99904C17.8568 6.85218 18.001 7.75965 18.001 8.69924C18.001 9.31934 17.9382 9.92585 17.8184 10.5117C17.7499 10.8458 17.44 11.074 17.1006 11.041C17.0408 11.0352 16.9794 11.0323 16.918 11.0322C15.9055 11.0322 15.085 11.8537 15.085 12.8662C15.0851 13.3167 15.2464 13.7277 15.5156 14.0469C15.7356 14.3078 15.7228 14.6935 15.4863 14.9395C14.4243 16.0429 13.082 16.8769 11.5732 17.3262C11.2254 17.4297 10.8586 17.2353 10.748 16.8897C10.5115 16.1501 9.81727 15.6164 9.00098 15.6162C8.18472 15.6164 7.49158 16.1502 7.25488 16.8897C7.14444 17.2351 6.77734 17.4292 6.42969 17.3262C4.9207 16.8769 3.57777 16.0431 2.51562 14.9395C2.27889 14.6935 2.26622 14.3079 2.48633 14.0469C2.75554 13.7277 2.91785 13.3166 2.91797 12.8662C2.91793 11.854 2.09708 11.0327 1.08496 11.0322C1.02359 11.0322 0.962122 11.0352 0.902344 11.041C0.562608 11.0744 0.252104 10.8461 0.183594 10.5117C0.0637479 9.92579 1.08532e-05 9.3194 0 8.69924C7.46674e-06 7.75968 0.145121 6.85218 0.413086 5.99904L0.454102 5.89846C0.567438 5.67381 0.80082 5.52875 1.05859 5.53225C1.06694 5.53236 1.07655 5.53225 1.08496 5.53225C2.09706 5.53181 2.91788 4.71141 2.91797 3.69924C2.91796 3.40748 2.85038 3.13297 2.73047 2.88967C2.60024 2.62552 2.65835 2.30701 2.87402 2.10647C3.91409 1.13946 5.18473 0.414812 6.59473 0.0244346L6.70996 0.00295024ZM11.5156 1.45412C10.9376 2.2093 10.0271 2.69908 9.00098 2.69924C7.9747 2.69914 7.06439 2.20941 6.48633 1.45412C5.61517 1.75649 4.81415 2.21156 4.11719 2.78811C4.20389 3.07708 4.25097 3.38311 4.25098 3.69924C4.2509 5.28476 3.08534 6.59767 1.56445 6.82912C1.41462 7.42707 1.33497 8.05352 1.33496 8.69924C1.33497 9.04393 1.35938 9.38274 1.40332 9.71486C3.00232 9.87489 4.25094 11.2251 4.25098 12.8662C4.25089 13.4169 4.10708 13.9343 3.85938 14.3858C4.55609 15.0161 5.36944 15.5188 6.26172 15.8604C6.80975 14.9175 7.83067 14.2824 9.00098 14.2822C10.1713 14.2824 11.1913 14.9184 11.7393 15.8613C12.632 15.5198 13.4446 15.0154 14.1416 14.3848C13.8943 13.9336 13.7511 13.4165 13.751 12.8662C13.751 11.2252 14.9997 9.87497 16.5986 9.71486C16.6426 9.38275 16.668 9.04391 16.668 8.69924C16.668 8.05341 16.5864 7.42717 16.4365 6.82912C14.9162 6.5972 13.7511 5.28437 13.751 3.69924C13.751 3.38325 13.7972 3.07697 13.8838 2.78811C13.1869 2.21177 12.3866 1.7564 11.5156 1.45412ZM9.00098 5.11525C10.9798 5.11543 12.5839 6.72041 12.584 8.69924C12.5838 10.678 10.9797 12.2821 9.00098 12.2822C7.02214 12.2822 5.41717 10.6781 5.41699 8.69924C5.4171 6.72036 7.02209 5.11534 9.00098 5.11525ZM9.00098 6.44924C7.75847 6.44933 6.75108 7.45674 6.75098 8.69924C6.75115 9.94168 7.75852 10.9492 9.00098 10.9492C10.2434 10.9491 11.2508 9.94162 11.251 8.69924C11.2509 7.45679 10.2434 6.44942 9.00098 6.44924Z" fill="var(--fill-0, black)" fill-opacity="0.45"/>
</svg>
