<svg preserveAspectRatio="none" width="100%" height="100%" overflow="visible" style="display: block;" viewBox="0 0 17 17" fill="none" xmlns="http://www.w3.org/2000/svg">
<path id="&#229;&#189;&#162;&#231;&#138;&#182;" fill-rule="evenodd" clip-rule="evenodd" d="M0 8.5C0 13.1944 3.80558 17 8.5 17C13.1944 17 17 13.1944 17 8.5C17 3.80558 13.1944 0 8.5 0C3.80558 0 0 3.80558 0 8.5ZM6.64541 1.49069L6.64801 1.49L6.64699 1.489L6.64541 1.49069ZM4.39 5.5C4.80603 4.00062 5.58002 2.62475 6.64541 1.49069C4.54259 2.04904 2.80051 3.52022 1.89801 5.5H4.39ZM4.16602 6.5H1.52998C1.34419 7.1504 1.25029 7.82359 1.251 8.5C1.251 9.194 1.34801 9.865 1.531 10.5H4.16699C4.05699 9.86 4.001 9.19301 4.001 8.5C4.001 7.80699 4.05699 7.14 4.16701 6.5H4.16602ZM5.18301 6.5C5.05877 7.15936 4.99749 7.82904 5 8.5C5 9.19801 5.06 9.865 5.18301 10.5H8V6.5H5.18301ZM4.39 11.5C4.80653 13.0002 5.58144 14.3767 6.64801 15.511C4.54382 14.9529 2.80064 13.481 1.89801 11.5H4.39ZM8 15.441V11.5H5.43301C5.90301 13.006 6.75801 14.317 8 15.442V15.441ZM8 1.56C6.75801 2.68199 5.904 3.99301 5.43301 5.5H8V1.56ZM13 8.5C13 7.80699 12.944 7.14 12.834 6.5H12.834H15.47C15.653 7.135 15.75 7.806 15.75 8.5C15.75 9.194 15.653 9.865 15.471 10.5H12.834C12.944 9.86 13 9.19301 13 8.5ZM11.817 6.5H9V10.5H11.817C11.939 9.865 12 9.19801 12 8.5C12 7.80199 11.94 7.135 11.817 6.5ZM10.3533 15.5106L10.352 15.511H10.353L10.3533 15.5106ZM10.3533 15.5106C12.4569 14.9523 14.1995 13.4805 15.102 11.5H12.61C12.1938 13 11.4194 14.3763 10.3533 15.5106ZM9 15.441C10.242 14.317 11.096 13.006 11.567 11.5H9V15.441ZM12.61 5.5C12.1933 4.00014 11.4184 2.624 10.352 1.49002L10.353 1.489C12.4572 2.04705 14.2004 3.51903 15.103 5.5H12.61ZM9 1.56002V5.5H11.567C11.097 3.994 10.242 2.68301 9 1.55801V1.56002Z" fill="var(--fill-0, black)" fill-opacity="0.88"/>
</svg>
