<svg preserveAspectRatio="none" width="100%" height="100%" overflow="visible" style="display: block;" viewBox="0 0 14 12" fill="none" xmlns="http://www.w3.org/2000/svg">
<g id="&#231;&#174;&#173;&#229;&#164;&#180;" clip-path="url(#clip0_0_11)">
<path id="Vector" d="M14 6.4302L11.2932 3.07241L8.58649 6.4302H9.79524C9.80645 7.8932 9.16922 9.24034 8.06508 10.1037C6.72948 11.148 4.95237 11.3343 3.48625 10.4707L2.97867 10.1259C2.97097 10.1607 2.99707 10.17 3.01354 10.1909C4.08668 11.5634 6.03812 12.1445 7.66508 11.9696C10.3802 11.6777 12.9533 9.48362 12.9824 6.4302H14Z" fill="var(--fill-0, #FD720F)"/>
<path id="Vector_2" d="M4.20494 5.65324C4.19198 5.02363 4.30656 4.3754 4.5296 3.79292C5.56489 1.08988 8.87593 0.0778546 11.0553 1.91098C11.063 1.87596 11.0371 1.86665 11.0204 1.84579C9.91175 0.442022 8.03284 -0.144371 6.35139 0.0297959C3.6145 0.31312 1.01041 2.56406 1.03371 5.65324H0L2.70676 9.01103L5.41351 5.65324H4.20494Z" fill="var(--fill-0, #FD720F)"/>
</g>
<defs>
<clipPath id="clip0_0_11">
<rect width="14" height="12" fill="white"/>
</clipPath>
</defs>
</svg>
