<svg preserveAspectRatio="none" width="100%" height="100%" overflow="visible" style="display: block;" viewBox="0 0 24 24" fill="none" xmlns="http://www.w3.org/2000/svg">
<g id="Frame 1000004406">
<path id="Subtract" d="M12 3C16.9706 3 21 7.02944 21 12C21 16.9706 16.9706 21 12 21C7.02944 21 3 16.9706 3 12C3 7.02944 7.02944 3 12 3ZM11.833 7.7002C11.3915 7.70039 11.0334 8.05846 11.0332 8.5V12C11.0332 12.0476 11.0379 12.0943 11.0459 12.1396C11.047 12.1458 11.0476 12.1521 11.0488 12.1582C11.0564 12.1958 11.0675 12.2321 11.0801 12.2676C11.1186 12.3762 11.1807 12.4785 11.2676 12.5654L14.2676 15.5654C14.5799 15.8778 15.086 15.8777 15.3984 15.5654C15.7109 15.253 15.7109 14.747 15.3984 14.4346L12.6328 11.6689L12.6338 8.5C12.6336 8.05834 12.2747 7.7002 11.833 7.7002Z" fill="var(--fill-0, black)" fill-opacity="0.25"/>
</g>
</svg>
