<svg preserveAspectRatio="none" width="100%" height="100%" overflow="visible" style="display: block;" viewBox="0 0 24 24" fill="none" xmlns="http://www.w3.org/2000/svg">
<g id="Frame 1000004406">
<path id="Subtract" d="M12 3C16.9706 3 21 7.02944 21 12C21 16.9706 16.9706 21 12 21C7.02944 21 3 16.9706 3 12C3 7.02944 7.02944 3 12 3ZM16.0654 9.43457C15.753 9.12215 15.247 9.12215 14.9346 9.43457L11 13.3691L9.06543 11.4346C8.75301 11.1222 8.24699 11.1222 7.93457 11.4346C7.62215 11.747 7.62215 12.253 7.93457 12.5654L10.4346 15.0654C10.747 15.3778 11.253 15.3778 11.5654 15.0654L16.0654 10.5654C16.3778 10.253 16.3778 9.74699 16.0654 9.43457Z" fill="var(--fill-0, black)" fill-opacity="0.25"/>
</g>
</svg>
