<svg preserveAspectRatio="none" width="100%" height="100%" overflow="visible" style="display: block;" viewBox="0 0 48 48" fill="none" xmlns="http://www.w3.org/2000/svg">
<g id="Frame 1000004399">
<rect width="48" height="48" rx="24" fill="var(--fill-0, #FD720F)"/>
<path id="Union" d="M32 26C32.5522 26 32.9999 26.4478 33 27C33 27.5523 32.5523 28 32 28H18.168L21.0273 31.3506C21.3858 31.7707 21.336 32.4022 20.916 32.7607C20.4959 33.1192 19.8644 33.0694 19.5058 32.6494L15.2392 27.6494C14.9861 27.3526 14.9284 26.9353 15.0918 26.5811C15.2552 26.2269 15.6099 26 16 26H32ZM27.084 15.2393C27.504 14.8808 28.1356 14.9307 28.4941 15.3506L32.7607 20.3506C33.014 20.6473 33.0716 21.0647 32.9082 21.4189C32.7448 21.7732 32.3901 22 32 22H16C15.4478 21.9999 15 21.5522 15 21C15 20.4478 15.4478 20.0001 16 20H29.832L26.9726 16.6494C26.6143 16.2293 26.664 15.5977 27.084 15.2393Z" fill="var(--fill-0, white)"/>
</g>
</svg>
