<svg preserveAspectRatio="none" width="100%" height="100%" overflow="visible" style="display: block;" viewBox="0 0 48 48" fill="none" xmlns="http://www.w3.org/2000/svg">
<g id="Frame 1000004399">
<rect width="48" height="48" rx="24" fill="var(--fill-0, #FD720F)"/>
<path id="Union" d="M24 13C24.5521 13.0002 25 13.4478 25 14V15.2256C25.071 15.2401 25.1424 15.2548 25.2129 15.2725L25.3467 15.3057C27.4912 15.8419 29.1141 17.5998 29.4775 19.7803L29.4863 19.8359C29.5769 20.3805 29.2085 20.8954 28.6641 20.9863C28.1194 21.0769 27.6045 20.7087 27.5137 20.1641L27.5039 20.1084C27.2713 18.7135 26.2332 17.5892 24.8613 17.2461L24.7275 17.2129C24.2499 17.0935 23.7501 17.0935 23.2725 17.2129L22.9912 17.2832C21.8211 17.5757 21.0001 18.6269 21 19.833C21 20.8587 21.5968 21.7913 22.5283 22.2207L26.3096 23.9629C27.9496 24.7191 29 26.361 29 28.167C28.9999 30.2907 27.5544 32.1419 25.4941 32.6572L25.2129 32.7275C25.1425 32.7451 25.071 32.7589 25 32.7734V34C25 34.5522 24.5521 34.9998 24 35C23.4477 35 23 34.5523 23 34V32.7734C22.9289 32.7589 22.8576 32.7452 22.7871 32.7275L22.6533 32.6943C20.5087 32.1582 18.8859 30.4003 18.5225 28.2197L18.5137 28.1641C18.4231 27.6194 18.7913 27.1044 19.3359 27.0137C19.8805 26.9233 20.3956 27.2914 20.4863 27.8359L20.4961 27.8916C20.7288 29.2866 21.7666 30.4109 23.1387 30.7539L23.2725 30.7871C23.7501 30.9065 24.2499 30.9065 24.7275 30.7871L25.0088 30.7168C26.1788 30.4242 26.9999 29.373 27 28.167C27 27.1414 26.403 26.2088 25.4717 25.7793L21.6904 24.0371C20.0503 23.2809 19 21.6391 19 19.833C19.0001 17.7092 20.4455 15.8579 22.5059 15.3428L22.7871 15.2725C22.8577 15.2548 22.9289 15.2401 23 15.2256V14C23 13.4477 23.4477 13 24 13Z" fill="var(--fill-0, white)"/>
</g>
</svg>
