<svg preserveAspectRatio="none" width="100%" height="100%" overflow="visible" style="display: block;" viewBox="0 0 213.158 56" fill="none" xmlns="http://www.w3.org/2000/svg">
<g id="Group 78">
<g id="&#230;&#169;&#153;&#232;&#137;&#178;">
<path d="M29.2768 40.6317H19.5724L14.3158 54.9475H0L17.2663 7.9264L29.2768 40.6317Z" fill="var(--fill-0, #FD720F)"/>
<path d="M186.211 18.1852L193.084 8.0884L188.294 1.05263H213.158L186.211 40.6316L173.579 22.0786V54.9474H159.263V1.05263H174.546L186.211 18.1852Z" fill="var(--fill-0, #FD720F)"/>
</g>
<g id="&#231;&#153;&#189;&#232;&#137;&#178;">
<path d="M198.842 30.4959V54.9475H213.158V9.46957L198.842 30.4959Z" fill="var(--fill-0, white)"/>
<path d="M53.8948 54.9474H39.579L19.7884 1.05263H34.1042L53.8948 54.9474Z" fill="var(--fill-0, white)"/>
<path d="M92.4516 36.579C92.1442 36.9589 91.8168 37.3253 91.4663 37.6758C88.8821 40.26 85.4453 41.6842 81.7905 41.6842C78.1358 41.6842 74.699 40.2611 72.1147 37.6758C69.5305 35.0916 68.1063 31.6547 68.1063 28C68.1063 24.3453 69.5295 20.9084 72.1147 18.3242C74.699 15.74 78.1358 14.3158 81.7905 14.3158C85.4453 14.3158 88.8821 15.7389 91.4663 18.3242C91.8168 18.6747 92.1453 19.0411 92.4516 19.4211L102.602 9.27053C97.4769 3.57895 90.0516 0 81.7895 0C66.3253 0 53.7895 12.5358 53.7895 28C53.7895 43.4642 66.3253 56 81.7895 56C90.0516 56 97.4769 52.4211 102.602 46.7295L92.4516 36.579Z" fill="var(--fill-0, white)"/>
<path d="M142.557 36.579C142.249 36.9589 141.922 37.3253 141.572 37.6758C138.987 40.26 135.551 41.6842 131.896 41.6842C128.241 41.6842 124.804 40.2611 122.22 37.6758C119.636 35.0916 118.212 31.6547 118.212 28C118.212 24.3453 119.635 20.9084 122.22 18.3242C124.804 15.74 128.241 14.3158 131.896 14.3158C135.551 14.3158 138.987 15.7389 141.572 18.3242C141.922 18.6747 142.251 19.0411 142.557 19.4211L152.707 9.27053C147.582 3.57895 140.157 0 131.895 0C116.431 0 103.895 12.5358 103.895 28C103.895 43.4642 116.431 56 131.895 56C140.157 56 147.582 52.4211 152.707 46.7295L142.557 36.579Z" fill="var(--fill-0, white)"/>
</g>
</g>
</svg>
