<svg preserveAspectRatio="none" width="100%" height="100%" overflow="visible" style="display: block;" viewBox="0 0 243.556 82.8509" fill="none" xmlns="http://www.w3.org/2000/svg">
<path id="Vector 8" d="M0.888929 75.2218C6.41694 68.1335 19.9169 54.7908 29.6928 58.1265C41.9126 62.2961 44.0947 73.137 51.9503 69.3844C59.8059 65.6317 75.6123 50.9262 82.9363 52.706C89.7778 54.3686 92.9322 66.407 98.211 75.2218C103.556 84.1464 113.049 86.0627 116.977 69.3844C120.905 52.706 128.324 23.5189 140.98 25.6037C153.637 27.6885 161.492 41.8651 171.53 37.6955C181.568 33.5259 184.186 -1.08162 197.715 1.00318C211.244 3.08797 209.062 30.6072 216.481 28.1055C223.901 25.6037 223.326 2.77145 230.883 1.00318C236.444 -0.298036 242.667 9.92417 242.667 12.261" stroke="var(--stroke-0, white)" stroke-opacity="0.8" stroke-width="1.77778" stroke-linecap="round" stroke-linejoin="round"/>
</svg>
