<svg preserveAspectRatio="none" width="100%" height="100%" overflow="visible" style="display: block;" viewBox="0 0 7.11111 7.11111" fill="none" xmlns="http://www.w3.org/2000/svg">
<path id="&#232;&#183;&#175;&#229;&#190;&#132;" fill-rule="evenodd" clip-rule="evenodd" d="M6.69479 0.00276992L6.65166 0.000210121L1.94975 0C1.69173 0 1.48257 0.209153 1.48257 0.467178C1.48257 0.706282 1.66298 0.906046 1.89902 0.931622L1.9421 0.93415L5.51595 0.934114L0.136844 6.31358C-0.0456156 6.49604 -0.0456156 6.79183 0.13685 6.97427C0.303882 7.1413 0.568631 7.15687 0.753645 7.01301L0.791097 6.98031L6.17671 1.59488L6.17675 5.16133C6.17675 5.41935 6.38591 5.6285 6.64393 5.6285C6.88304 5.6285 7.0828 5.4481 7.10838 5.21206L7.1109 5.16898L7.11111 0.467178C7.11111 0.229197 6.93031 0.0285502 6.69479 0.00276992Z" fill="var(--fill-0, white)"/>
</svg>
