<svg preserveAspectRatio="none" width="100%" height="100%" overflow="visible" style="display: block;" viewBox="0 0 35.1273 35.1273" fill="none" xmlns="http://www.w3.org/2000/svg">
<g id="Group 47">
<g id="Ellipse 16">
<circle cx="15.2727" cy="15.2727" r="15.2727" transform="matrix(-1 0 0 1 30.7636 0.218182)" fill="var(--fill-0, #F57F00)"/>
<circle cx="15.2727" cy="15.2727" r="15.2727" transform="matrix(-1 0 0 1 30.7636 0.218182)" fill="url(#paint0_radial_0_362)"/>
<circle cx="15.2727" cy="15.2727" r="15.2727" transform="matrix(-1 0 0 1 30.7636 0.218182)" stroke="url(#paint1_linear_0_362)" stroke-width="0.436364"/>
</g>
<foreignObject x="-1.96364" y="-1.96364" width="41.4545" height="41.4545"><div xmlns="http://www.w3.org/1999/xhtml" style="backdrop-filter:blur(2.18px);clip-path:url(#bgblur_0_0_362_clip_path);height:100%;width:100%"></div></foreignObject><g id="Ellipse 17" data-figma-bg-blur-radius="4.36364">
<mask id="path-2-inside-1_0_362" fill="white">
<path d="M35.1273 18.7636C35.1273 27.801 27.801 35.1273 18.7636 35.1273C9.72625 35.1273 2.4 27.801 2.4 18.7636C2.4 9.72625 9.72625 2.4 18.7636 2.4C27.801 2.4 35.1273 9.72625 35.1273 18.7636Z"/>
</mask>
<path d="M35.1273 18.7636C35.1273 27.801 27.801 35.1273 18.7636 35.1273C9.72625 35.1273 2.4 27.801 2.4 18.7636C2.4 9.72625 9.72625 2.4 18.7636 2.4C27.801 2.4 35.1273 9.72625 35.1273 18.7636Z" fill="url(#paint2_radial_0_362)" fill-opacity="0.4"/>
<g clip-path="url(#paint3_angular_0_362_clip_path)" data-figma-skip-parse="true" mask="url(#path-2-inside-1_0_362)"><g transform="matrix(-0.0154327 0.0166374 -0.0157953 -0.0147604 17.8327 18.4898)"><foreignObject x="-1145.55" y="-1145.55" width="2291.1" height="2291.1"><div xmlns="http://www.w3.org/1999/xhtml" style="background:conic-gradient(from 90deg,rgba(255, 174, 87, 0.4) 0deg,rgba(255, 255, 255, 1) 89.9002deg,rgba(246, 170, 89, 0.8) 181.731deg,rgba(255, 174, 87, 0.4) 360deg);height:100%;width:100%;opacity:1"></div></foreignObject></g></g><path d="M35.1273 18.7636H34.5818C34.5818 27.4998 27.4998 34.5818 18.7636 34.5818V35.1273V35.6727C28.1023 35.6727 35.6727 28.1023 35.6727 18.7636H35.1273ZM18.7636 35.1273V34.5818C10.0275 34.5818 2.94545 27.4998 2.94545 18.7636H2.4H1.85455C1.85455 28.1023 9.425 35.6727 18.7636 35.6727V35.1273ZM2.4 18.7636H2.94545C2.94545 10.0275 10.0275 2.94545 18.7636 2.94545V2.4V1.85455C9.425 1.85455 1.85455 9.425 1.85455 18.7636H2.4ZM18.7636 2.4V2.94545C27.4998 2.94545 34.5818 10.0275 34.5818 18.7636H35.1273H35.6727C35.6727 9.425 28.1023 1.85455 18.7636 1.85455V2.4Z" data-figma-gradient-fill="{&#34;type&#34;:&#34;GRADIENT_ANGULAR&#34;,&#34;stops&#34;:[{&#34;color&#34;:{&#34;r&#34;:1.0,&#34;g&#34;:1.0,&#34;b&#34;:1.0,&#34;a&#34;:1.0},&#34;position&#34;:0.24972273409366608},{&#34;color&#34;:{&#34;r&#34;:0.96488952636718750,&#34;g&#34;:0.66774702072143555,&#34;b&#34;:0.35143399238586426,&#34;a&#34;:0.80000001192092896},&#34;position&#34;:0.50480771064758301},{&#34;color&#34;:{&#34;r&#34;:1.0,&#34;g&#34;:0.68253290653228760,&#34;b&#34;:0.34458395838737488,&#34;a&#34;:0.40000000596046448},&#34;position&#34;:1.0}],&#34;stopsVar&#34;:[{&#34;color&#34;:{&#34;r&#34;:1.0,&#34;g&#34;:1.0,&#34;b&#34;:1.0,&#34;a&#34;:1.0},&#34;position&#34;:0.24972273409366608},{&#34;color&#34;:{&#34;r&#34;:0.96488952636718750,&#34;g&#34;:0.66774702072143555,&#34;b&#34;:0.35143399238586426,&#34;a&#34;:0.80000001192092896},&#34;position&#34;:0.50480771064758301},{&#34;color&#34;:{&#34;r&#34;:1.0,&#34;g&#34;:0.68253290653228760,&#34;b&#34;:0.34458395838737488,&#34;a&#34;:0.40000000596046448},&#34;position&#34;:1.0}],&#34;transform&#34;:{&#34;m00&#34;:-30.865394592285156,&#34;m01&#34;:-31.590620040893555,&#34;m02&#34;:49.060703277587891,&#34;m10&#34;:33.274868011474609,&#34;m11&#34;:-29.520887374877930,&#34;m12&#34;:16.612848281860352},&#34;opacity&#34;:1.0,&#34;blendMode&#34;:&#34;NORMAL&#34;,&#34;visible&#34;:true}" mask="url(#path-2-inside-1_0_362)"/>
</g>
<g id="Union" filter="url(#filter1_d_0_362)">
<path d="M11.1273 18.7632C11.1275 18.161 11.6158 17.6725 12.2181 17.6724L23.0384 17.6724L20.0941 13.9908C19.7178 13.5204 19.7937 12.834 20.264 12.4576C20.7344 12.0813 21.4208 12.1573 21.7972 12.6275L26.1615 18.0826C26.2442 18.1861 26.3044 18.3012 26.3441 18.4214C26.3488 18.4356 26.3527 18.45 26.3568 18.4644C26.3632 18.4867 26.3685 18.5092 26.3734 18.5318C26.375 18.5393 26.3768 18.5467 26.3783 18.5542C26.3818 18.5721 26.3835 18.59 26.3861 18.608C26.3934 18.6588 26.3997 18.7104 26.3998 18.7632C26.3998 18.8169 26.3936 18.8698 26.3861 18.9214C26.3835 18.939 26.3817 18.9567 26.3783 18.9742C26.3768 18.9817 26.375 18.9891 26.3734 18.9966C26.3685 19.0192 26.3632 19.0417 26.3568 19.064C26.3527 19.0784 26.3488 19.0928 26.3441 19.107C26.3044 19.2269 26.244 19.3417 26.1615 19.4449L21.7972 24.8999C21.4208 25.3701 20.7344 25.446 20.264 25.0699C19.7938 24.6935 19.7178 24.0071 20.0941 23.5367L23.0404 19.854L12.2181 19.854C11.6157 19.854 11.1273 19.3657 11.1273 18.7632Z" fill="var(--fill-0, white)"/>
</g>
</g>
<defs>
<clipPath id="bgblur_0_0_362_clip_path" transform="translate(1.96364 1.96364)"><path d="M35.1273 18.7636C35.1273 27.801 27.801 35.1273 18.7636 35.1273C9.72625 35.1273 2.4 27.801 2.4 18.7636C2.4 9.72625 9.72625 2.4 18.7636 2.4C27.801 2.4 35.1273 9.72625 35.1273 18.7636Z"/>
</clipPath><clipPath id="paint3_angular_0_362_clip_path"><path d="M35.1273 18.7636H34.5818C34.5818 27.4998 27.4998 34.5818 18.7636 34.5818V35.1273V35.6727C28.1023 35.6727 35.6727 28.1023 35.6727 18.7636H35.1273ZM18.7636 35.1273V34.5818C10.0275 34.5818 2.94545 27.4998 2.94545 18.7636H2.4H1.85455C1.85455 28.1023 9.425 35.6727 18.7636 35.6727V35.1273ZM2.4 18.7636H2.94545C2.94545 10.0275 10.0275 2.94545 18.7636 2.94545V2.4V1.85455C9.425 1.85455 1.85455 9.425 1.85455 18.7636H2.4ZM18.7636 2.4V2.94545C27.4998 2.94545 34.5818 10.0275 34.5818 18.7636H35.1273H35.6727C35.6727 9.425 28.1023 1.85455 18.7636 1.85455V2.4Z" mask="url(#path-2-inside-1_0_362)"/></clipPath><filter id="filter1_d_0_362" x="10.5818" y="11.673" width="17.4543" height="15.2723" filterUnits="userSpaceOnUse" color-interpolation-filters="sRGB">
<feFlood flood-opacity="0" result="BackgroundImageFix"/>
<feColorMatrix in="SourceAlpha" type="matrix" values="0 0 0 0 0 0 0 0 0 0 0 0 0 0 0 0 0 0 127 0" result="hardAlpha"/>
<feOffset dx="0.545455" dy="0.545455"/>
<feGaussianBlur stdDeviation="0.545455"/>
<feComposite in2="hardAlpha" operator="out"/>
<feColorMatrix type="matrix" values="0 0 0 0 0.864709 0 0 0 0 0.446766 0 0 0 0 0 0 0 0 0.2 0"/>
<feBlend mode="normal" in2="BackgroundImageFix" result="effect1_dropShadow_0_362"/>
<feBlend mode="normal" in="SourceGraphic" in2="effect1_dropShadow_0_362" result="shape"/>
</filter>
<radialGradient id="paint0_radial_0_362" cx="0" cy="0" r="1" gradientUnits="userSpaceOnUse" gradientTransform="translate(5.43802 27.3058) rotate(-50.5826) scale(21.8662)">
<stop stop-color="#FF1E00" stop-opacity="0.6"/>
<stop offset="1" stop-color="#F57F00" stop-opacity="0"/>
</radialGradient>
<linearGradient id="paint1_linear_0_362" x1="25.8017" y1="3.35537" x2="7.63636" y2="29.2727" gradientUnits="userSpaceOnUse">
<stop stop-color="#FFEBBC"/>
<stop offset="1" stop-color="#FF8400"/>
</linearGradient>
<radialGradient id="paint2_radial_0_362" cx="0" cy="0" r="1" gradientUnits="userSpaceOnUse" gradientTransform="translate(32.4091 5.52637) rotate(132.879) scale(36.5223)">
<stop stop-color="#FFE0BF"/>
<stop offset="1" stop-color="#FF9522"/>
</radialGradient>
</defs>
</svg>
