<svg preserveAspectRatio="none" width="100%" height="100%" overflow="visible" style="display: block;" viewBox="0 0 32 32" fill="none" xmlns="http://www.w3.org/2000/svg">
<g id="Frame">
<rect width="32" height="32" rx="16" fill="var(--fill-0, #FFF5EB)"/>
<path id="Vector" d="M18 18.3333H14C12.4087 18.3333 10.8826 18.9655 9.75736 20.0907C9.10919 20.7389 8.62464 21.5201 8.33028 22.3701C7.96884 23.4139 8.89544 24.3333 10 24.3333H21.9424C23.0692 24.3333 24.0075 23.38 23.6345 22.3167C23.3257 21.4366 22.8214 20.6326 22.1165 19.9679C21.003 18.918 19.5304 18.3332 18 18.3333ZM16 8.33333C14.9391 8.33333 13.9217 8.75476 13.1716 9.50491C12.4214 10.2551 12 11.2725 12 12.3333C12 13.3942 12.4214 14.4116 13.1716 15.1618C13.9217 15.9119 14.9391 16.3333 16 16.3333C17.0609 16.3333 18.0783 15.9119 18.8284 15.1618C19.5786 14.4116 20 13.3942 20 12.3333C20 11.2725 19.5786 10.2551 18.8284 9.50491C18.0783 8.75476 17.0609 8.33333 16 8.33333Z" fill="var(--fill-0, #FD720F)"/>
</g>
</svg>
