<svg preserveAspectRatio="none" width="100%" height="100%" overflow="visible" style="display: block;" viewBox="0 0 20 20" fill="none" xmlns="http://www.w3.org/2000/svg">
<g id="icon/&#232;&#175;&#173;&#232;&#168;&#128;">
<path id="Union" d="M10 1.69336C14.5874 1.69336 18.3066 5.41258 18.3066 10C18.3066 14.5874 14.5874 18.3066 10 18.3066C5.41258 18.3066 1.69336 14.5874 1.69336 10C1.69336 5.41258 5.41258 1.69336 10 1.69336ZM2.99805 10.1768C3.07707 13.3676 5.28765 16.0276 8.26074 16.7871C8.01036 16.3816 7.79532 15.8928 7.61523 15.3525C7.22306 14.176 6.96372 12.66 6.88086 10.9873C5.67302 10.8124 4.4037 10.5399 2.99805 10.1768ZM17.001 10.1787C15.5959 10.5475 14.327 10.8217 13.1182 10.9951C13.0349 12.6647 12.7763 14.1778 12.3848 15.3525C12.2046 15.893 11.9888 16.3815 11.7383 16.7871C14.7112 16.0281 16.9211 13.369 17.001 10.1787ZM8.19043 11.1416C8.27962 12.6313 8.51718 13.947 8.84863 14.9414C9.06212 15.5819 9.30228 16.0534 9.53711 16.3516C9.77782 16.657 9.93935 16.6934 10 16.6934C10.0607 16.6934 10.2222 16.657 10.4629 16.3516C10.6977 16.0534 10.9379 15.5819 11.1514 14.9414C11.4824 13.9483 11.7181 12.6347 11.8076 11.1475C11.2025 11.1995 10.6063 11.2254 10.0088 11.2246C9.4052 11.2238 8.80259 11.1959 8.19043 11.1416ZM10 2.99414C9.93935 2.99414 9.77782 3.0305 9.53711 3.33594C9.30228 3.63407 9.06212 4.10564 8.84863 4.74609C8.42464 6.01815 8.15153 7.81564 8.15039 9.83105C8.78179 9.89189 9.39704 9.92403 10.0107 9.9248C10.6177 9.92556 11.2256 9.89523 11.8486 9.83691C11.848 7.81912 11.5758 6.01938 11.1514 4.74609C10.9379 4.10564 10.6977 3.63407 10.4629 3.33594C10.2222 3.0305 10.0607 2.99414 10 2.99414ZM11.9453 3.26953C12.1093 3.59101 12.2563 3.94969 12.3848 4.33496C12.852 5.73681 13.1329 7.62026 13.1475 9.67676C14.2998 9.50073 15.5282 9.22727 16.9111 8.85742C16.4714 6.17687 14.5119 4.00995 11.9453 3.26953ZM8.05371 3.26953C5.48813 4.01003 3.52816 6.17604 3.08789 8.85547C4.47182 9.21925 5.70102 9.48978 6.85254 9.66699C6.86794 7.6143 7.14872 5.73459 7.61523 4.33496C7.74361 3.94985 7.88982 3.59091 8.05371 3.26953Z" fill="var(--fill-0, black)" fill-opacity="0.88"/>
</g>
</svg>
