<svg preserveAspectRatio="none" width="100%" height="100%" overflow="visible" style="display: block;" viewBox="0 0 14.6678 14.668" fill="none" xmlns="http://www.w3.org/2000/svg">
<path id="Union" d="M8.16406 0C8.53203 0.000263846 8.83105 0.299942 8.83105 0.667969C8.83079 1.03577 8.53187 1.3347 8.16406 1.33496H1.33496V13.335H8.16797C8.53583 13.3352 8.83479 13.6331 8.83496 14.001C8.8347 14.3688 8.53577 14.6677 8.16797 14.668H0.667969C0.299942 14.668 0.000263846 14.3689 0 14.001V0.667969C0 0.299779 0.299779 0 0.667969 0H8.16406ZM9.7793 3.1123C10.0397 2.85212 10.4624 2.85201 10.7227 3.1123L14.4727 6.8623C14.733 7.1226 14.7328 7.5453 14.4727 7.80566L10.7227 11.5557C10.4623 11.816 10.0396 11.816 9.7793 11.5557C9.51895 11.2953 9.51895 10.8727 9.7793 10.6123L12.3936 7.99805H4.00098C3.63291 7.99805 3.33418 7.69908 3.33398 7.33105C3.33398 6.96286 3.63279 6.66406 4.00098 6.66406H12.3877L9.7793 4.05566C9.51895 3.79531 9.51895 3.37265 9.7793 3.1123Z" fill="var(--fill-0, #FD720F)"/>
</svg>
