<svg preserveAspectRatio="none" width="100%" height="100%" overflow="visible" style="display: block;" viewBox="0 0 106.579 28" fill="none" xmlns="http://www.w3.org/2000/svg">
<g id="Group 78">
<g id="&#230;&#169;&#153;&#232;&#137;&#178;">
<path d="M14.6384 20.3158H9.78618L7.15789 27.4737H0L8.63317 3.9632L14.6384 20.3158Z" fill="var(--fill-0, #FD720F)"/>
<path d="M93.1053 9.09262L96.542 4.0442L94.1468 0.526316H106.579L93.1053 20.3158L86.7895 11.0393V27.4737H79.6316V0.526316H87.2732L93.1053 9.09262Z" fill="var(--fill-0, #FD720F)"/>
</g>
<g id="&#231;&#153;&#189;&#232;&#137;&#178;">
<path d="M99.4211 15.2479V27.4737H106.579V4.73479L99.4211 15.2479Z" fill="var(--fill-0, white)"/>
<path d="M26.9474 27.4737H19.7895L9.89422 0.526316H17.0521L26.9474 27.4737Z" fill="var(--fill-0, white)"/>
<path d="M46.2258 18.2895C46.0721 18.4795 45.9084 18.6626 45.7332 18.8379C44.4411 20.13 42.7226 20.8421 40.8953 20.8421C39.0679 20.8421 37.3495 20.1305 36.0574 18.8379C34.7653 17.5458 34.0532 15.8274 34.0532 14C34.0532 12.1726 34.7647 10.4542 36.0574 9.16211C37.3495 7.87 39.0679 7.1579 40.8953 7.1579C42.7226 7.1579 44.4411 7.86947 45.7332 9.16211C45.9084 9.33737 46.0726 9.52053 46.2258 9.71053L51.3011 4.63526C48.7384 1.78947 45.0258 0 40.8947 0C33.1626 0 26.8947 6.2679 26.8947 14C26.8947 21.7321 33.1626 28 40.8947 28C45.0258 28 48.7384 26.2105 51.3011 23.3647L46.2258 18.2895Z" fill="var(--fill-0, white)"/>
<path d="M71.2784 18.2895C71.1247 18.4795 70.9611 18.6626 70.7858 18.8379C69.4937 20.13 67.7753 20.8421 65.9479 20.8421C64.1205 20.8421 62.4021 20.1305 61.11 18.8379C59.8179 17.5458 59.1058 15.8274 59.1058 14C59.1058 12.1726 59.8174 10.4542 61.11 9.16211C62.4021 7.87 64.1205 7.1579 65.9479 7.1579C67.7753 7.1579 69.4937 7.86947 70.7858 9.16211C70.9611 9.33737 71.1253 9.52053 71.2784 9.71053L76.3537 4.63526C73.7911 1.78947 70.0784 0 65.9474 0C58.2153 0 51.9474 6.2679 51.9474 14C51.9474 21.7321 58.2153 28 65.9474 28C70.0784 28 73.7911 26.2105 76.3537 23.3647L71.2784 18.2895Z" fill="var(--fill-0, white)"/>
</g>
</g>
</svg>
