<svg preserveAspectRatio="none" width="100%" height="100%" overflow="visible" style="display: block;" viewBox="0 0 16.4003 13.1412" fill="none" xmlns="http://www.w3.org/2000/svg">
<path id="Subtract" d="M15.4785 9.27717C15.845 9.15523 16.2419 9.35316 16.3642 9.71955C16.4864 10.0861 16.2882 10.4828 15.9219 10.6053L8.42186 13.1053C8.27826 13.1532 8.12211 13.1531 7.9785 13.1053L0.478499 10.6053C0.111926 10.4829 -0.0861048 10.0862 0.0361161 9.71955C0.158599 9.35317 0.555295 9.15498 0.921858 9.27717L8.20018 11.7029L15.4785 9.27717ZM15.4785 5.94416C15.8451 5.82214 16.2419 6.02007 16.3642 6.38654C16.4863 6.75304 16.2882 7.14982 15.9219 7.27228L8.42186 9.77228C8.2783 9.82014 8.12208 9.82005 7.9785 9.77228L0.478499 7.27228C0.111926 7.14992 -0.0861048 6.7532 0.0361161 6.38654C0.158485 6.01997 0.555198 5.82194 0.921858 5.94416L8.20018 8.36994L15.4785 5.94416ZM7.87108 0.0554859C8.08381 -0.0185068 8.31557 -0.0184838 8.5283 0.0554859L15.0674 2.3299C15.9627 2.64131 15.9627 3.90814 15.0674 4.21955L8.5283 6.49396C8.31556 6.56794 8.08381 6.56796 7.87108 6.49396L1.33201 4.21955C0.436709 3.90814 0.436709 2.64131 1.33201 2.3299L7.87108 0.0554859Z" fill="var(--fill-0, white)" fill-opacity="0.88"/>
</svg>
