<svg preserveAspectRatio="none" width="100%" height="100%" overflow="visible" style="display: block;" viewBox="0 0 15 13.334" fill="none" xmlns="http://www.w3.org/2000/svg">
<path id="Subtract" d="M14 0C14.5522 0 14.9998 0.447865 15 1V12.334C14.9998 12.8861 14.5522 13.334 14 13.334H1C0.447824 13.334 0.000176074 12.8861 0 12.334V1C0.000175345 0.447864 0.447823 2.81716e-08 1 0H14ZM4.16699 6.28418C3.72516 6.28418 3.36719 6.64216 3.36719 7.08398V9.58398C3.36736 10.0257 3.72527 10.3838 4.16699 10.3838C4.60856 10.3836 4.96662 10.0256 4.9668 9.58398V7.08398C4.9668 6.64227 4.60867 6.28436 4.16699 6.28418ZM7.5 2.9502C7.05828 2.9502 6.70037 3.30832 6.7002 3.75V9.58301C6.7002 10.0248 7.05817 10.3838 7.5 10.3838C7.94183 10.3838 8.2998 10.0248 8.2998 9.58301V3.75C8.29963 3.30832 7.94172 2.9502 7.5 2.9502ZM10.833 5.4502C10.3914 5.45037 10.0334 5.80843 10.0332 6.25V9.58301C10.0332 10.0247 10.3913 10.3836 10.833 10.3838C11.2748 10.3838 11.6328 10.0248 11.6328 9.58301V6.25C11.6326 5.80832 11.2747 5.4502 10.833 5.4502Z" fill="var(--fill-0, white)" fill-opacity="0.88"/>
</svg>
