<svg preserveAspectRatio="none" width="100%" height="100%" overflow="visible" style="display: block;" viewBox="0 0 15 15" fill="none" xmlns="http://www.w3.org/2000/svg">
<path id="Subtract" d="M11.083 0C11.6353 0 12.083 0.447715 12.083 1V13.333H13.333V7.5C13.333 7.03976 13.7068 6.66699 14.167 6.66699C14.6271 6.66717 15 7.03987 15 7.5V13.333C15 14.2535 14.2535 15 13.333 15H1C0.447715 15 2.08579e-07 14.5523 0 14V1C0 0.447715 0.447715 0 1 0H11.083ZM3.33301 6.7002C2.89133 6.70037 2.5332 7.05828 2.5332 7.5C2.5332 7.94172 2.89133 8.29963 3.33301 8.2998H8.33301C8.77484 8.2998 9.13281 7.94183 9.13281 7.5C9.13281 7.05817 8.77484 6.7002 8.33301 6.7002H3.33301ZM3.33301 3.36719C2.89133 3.36736 2.5332 3.72527 2.5332 4.16699C2.53338 4.60856 2.89144 4.96662 3.33301 4.9668H5.83301C6.27473 4.9668 6.63264 4.60867 6.63281 4.16699C6.63281 3.72516 6.27484 3.36719 5.83301 3.36719H3.33301Z" fill="var(--fill-0, white)" fill-opacity="0.88"/>
</svg>
