<svg preserveAspectRatio="none" width="100%" height="100%" overflow="visible" style="display: block;" viewBox="0 0 15 13.334" fill="none" xmlns="http://www.w3.org/2000/svg">
<path id="Subtract" d="M14 0C14.5522 0 14.9998 0.447865 15 1V12.334C14.9998 12.8861 14.5522 13.334 14 13.334H1C0.447824 13.334 0.000176074 12.8861 0 12.334V1C0.000175345 0.447864 0.447823 2.81716e-08 1 0H14ZM4.16699 7.2168C3.90112 7.21692 3.65814 7.36824 3.54004 7.60645C3.42206 7.84475 3.44934 8.12923 3.61035 8.34082L5.51562 10.8408C5.74996 11.148 6.18868 11.2078 6.49609 10.9736C6.80306 10.7394 6.86259 10.3005 6.62891 9.99316L5.58008 8.61719H10.834C11.2202 8.61685 11.5341 8.3033 11.5342 7.91699C11.5341 7.53069 11.2202 7.21714 10.834 7.2168H4.16699ZM9.48535 2.49316C9.25109 2.18588 8.81233 2.12633 8.50488 2.36035C8.19751 2.59454 8.13816 3.03333 8.37207 3.34082L9.4209 4.7168H4.16699C3.7805 4.71685 3.4669 5.03051 3.4668 5.41699C3.46689 5.80348 3.7805 6.11713 4.16699 6.11719H10.834C11.0998 6.11691 11.3429 5.96577 11.4609 5.72754C11.5788 5.48937 11.5514 5.20469 11.3906 4.99316L9.48535 2.49316Z" fill="var(--fill-0, white)" fill-opacity="0.88"/>
</svg>
