<svg preserveAspectRatio="none" width="100%" height="100%" overflow="visible" style="display: block;" viewBox="0 0 14.8712 15" fill="none" xmlns="http://www.w3.org/2000/svg">
<path id="Subtract" d="M13.0586 0C13.5866 0 14.0237 0.410526 14.0567 0.9375L14.8692 13.9375C14.9052 14.5132 14.4479 15 13.8711 15H1.00003C0.42325 15 -0.0339925 14.5132 0.00198699 13.9375L0.814487 0.9375C0.847482 0.410547 1.28454 4.06726e-05 1.81253 0H13.0586ZM9.93558 3.36719C9.49378 3.36722 9.13578 3.72519 9.13578 4.16699C9.1356 5.10573 8.37436 5.86719 7.43558 5.86719C6.49684 5.86715 5.73556 5.10571 5.73539 4.16699C5.73539 3.72516 5.37741 3.36719 4.93558 3.36719C4.49378 3.36722 4.13578 3.72519 4.13578 4.16699C4.13595 5.98936 5.61318 7.46676 7.43558 7.4668C9.25801 7.4668 10.7352 5.98938 10.7354 4.16699C10.7354 3.72516 10.3774 3.36719 9.93558 3.36719Z" fill="var(--fill-0, white)" fill-opacity="0.88"/>
</svg>
