<svg preserveAspectRatio="none" width="100%" height="100%" overflow="visible" style="display: block;" viewBox="0 0 14.9753 15" fill="none" xmlns="http://www.w3.org/2000/svg">
<path id="Subtract" d="M10.6903 0C11.22 0 11.6787 0.414807 11.6444 0.943359C11.5809 1.92059 11.2036 2.69217 9.8817 3.74512C12.4587 4.65988 14.3736 7.01011 14.6219 9.87695L14.9715 13.9141C15.0219 14.498 14.5616 15 13.9755 15H0.999868C0.413729 14.9999 -0.0466043 14.498 0.00377475 13.9141L0.353384 9.87695C0.599892 7.03068 2.48909 4.69327 5.03795 3.76465C3.88913 2.92265 3.46963 2.14809 3.35631 0.987305C3.30313 0.442331 3.76285 0 4.31042 0H10.6903ZM4.95788 10.8672C4.51633 10.8675 4.15807 11.2254 4.15807 11.667C4.15825 12.1085 4.51643 12.4665 4.95788 12.4668H9.95788C10.3996 12.4668 10.7575 12.1087 10.7577 11.667C10.7577 11.2252 10.3997 10.8672 9.95788 10.8672H4.95788Z" fill="var(--fill-0, white)" fill-opacity="0.88"/>
</svg>
