<svg preserveAspectRatio="none" width="100%" height="100%" overflow="visible" style="display: block;" viewBox="0 0 15 14.8312" fill="none" xmlns="http://www.w3.org/2000/svg">
<path id="Subtract" d="M7.03809 0.139789C7.31788 -0.0465964 7.68212 -0.0465963 7.96191 0.139789L14.6289 4.58413C14.8607 4.73865 14.9999 4.99892 15 5.27748V13.9982C15 14.4583 14.6271 14.831 14.167 14.8312H0.833008C0.37292 14.831 0 14.4583 0 13.9982V5.27748C5.66918e-05 4.99892 0.139309 4.73865 0.371094 4.58413L7.03809 0.139789ZM10.4717 9.35952C10.2114 9.09948 9.78861 9.09948 9.52832 9.35952C8.40796 10.4799 6.59204 10.4799 5.47168 9.35952C5.21139 9.09948 4.78861 9.09948 4.52832 9.35952C4.26805 9.61979 4.26821 10.0425 4.52832 10.3029C6.16938 11.9439 8.83062 11.9439 10.4717 10.3029C10.7318 10.0425 10.732 9.61979 10.4717 9.35952Z" fill="var(--fill-0, #FD720F)"/>
</svg>
