<svg preserveAspectRatio="none" width="100%" height="100%" overflow="visible" style="display: block;" viewBox="0 0 15 13.334" fill="none" xmlns="http://www.w3.org/2000/svg">
<path id="Subtract" d="M14 0C14.5522 0 14.9998 0.447865 15 1V3.36719H11.667C9.84445 3.36719 8.36719 4.84445 8.36719 6.66699C8.36719 8.48953 9.84445 9.9668 11.667 9.9668H15V12.334C14.9998 12.8861 14.5522 13.334 14 13.334H1C0.447824 13.334 0.000176074 12.8861 0 12.334V1C0.000175345 0.447864 0.447823 2.81716e-08 1 0H14ZM15 8.36719H11.667C10.7281 8.36719 9.9668 7.60588 9.9668 6.66699C9.9668 5.72811 10.7281 4.9668 11.667 4.9668H15V8.36719ZM11.667 5.83398C11.2068 5.83398 10.833 6.20675 10.833 6.66699C10.833 7.12723 11.2068 7.5 11.667 7.5C12.1271 7.49982 12.5 7.12712 12.5 6.66699C12.5 6.20686 12.1271 5.83416 11.667 5.83398Z" fill="var(--fill-0, white)" fill-opacity="0.88"/>
</svg>
