<svg preserveAspectRatio="none" width="100%" height="100%" overflow="visible" style="display: block;" viewBox="0 0 14.1667 15.8332" fill="none" xmlns="http://www.w3.org/2000/svg">
<path id="Subtract" d="M5.92497 0.000377447C6.01244 0.00376028 6.09791 0.0297982 6.17399 0.0765493C7.73719 1.05329 8.8403 2.06128 9.6447 3.24842C9.86309 3.56951 10.0584 3.90571 10.2326 4.25526C10.3569 3.83406 10.4914 3.4165 10.6369 3.00331C10.7043 2.82738 10.8474 2.69756 11.0197 2.65956C11.1045 2.64062 11.1923 2.64431 11.2756 2.6703C11.3586 2.69627 11.4349 2.74321 11.4972 2.80799C14.2641 5.70831 14.5089 9.14056 13.88 11.1996C12.9085 14.373 10.0246 15.6631 7.65055 15.8119C6.98538 15.8528 6.3178 15.8349 5.65544 15.7572C2.63638 15.4035 -0.267659 13.2752 0.0196954 9.89003C0.158104 8.29157 1.07506 6.40237 1.74626 5.02381L1.85661 4.79921C1.90377 4.70289 1.97585 4.62237 2.06364 4.56874C2.15126 4.51534 2.25127 4.49053 2.35173 4.49647C2.45217 4.50163 2.54914 4.53789 2.63102 4.60096C2.7129 4.66403 2.77638 4.75104 2.81364 4.85194C2.90969 5.11402 3.05905 5.41788 3.21891 5.74256L3.39958 6.11756C4.76699 4.64584 5.16738 2.55636 5.38395 0.493542C5.39425 0.400725 5.42554 0.311853 5.47575 0.235729C5.52602 0.159612 5.59317 0.0977749 5.67106 0.0570181C5.75006 0.0162255 5.83747 -0.00299223 5.92497 0.000377447ZM11.5695 7.18495C11.3954 6.77907 10.9247 6.59115 10.5187 6.76503C10.1128 6.93915 9.92479 7.40978 10.0988 7.81581C10.2635 8.2005 10.4123 8.8426 10.3234 9.45936C10.2404 10.0345 9.95786 10.5858 9.22673 10.9515C8.83159 11.1491 8.67084 11.6296 8.86833 12.0248C9.06606 12.4196 9.54658 12.5796 9.94157 12.3822C11.2095 11.7482 11.761 10.7024 11.9074 9.68788C12.0476 8.71505 11.8212 7.7726 11.5695 7.18495Z" fill="var(--fill-0, white)" fill-opacity="0.88"/>
</svg>
