<svg preserveAspectRatio="none" width="100%" height="100%" overflow="visible" style="display: block;" viewBox="0 0 11.3337 11.3337" fill="none" xmlns="http://www.w3.org/2000/svg">
<path id="Union" d="M10.1953 0.195262C10.4556 -0.0650874 10.8783 -0.0650874 11.1386 0.195262C11.3986 0.455638 11.3989 0.87838 11.1386 1.13862L6.6103 5.66694L11.1386 10.1953C11.3986 10.4556 11.3989 10.8784 11.1386 11.1386C10.8784 11.3989 10.4556 11.3986 10.1953 11.1386L5.66694 6.6103L1.13862 11.1386C0.87838 11.3989 0.455638 11.3986 0.195262 11.1386C-0.0650874 10.8783 -0.0650874 10.4556 0.195262 10.1953L4.72358 5.66694L0.195262 1.13862C-0.0650874 0.878272 -0.0650874 0.455612 0.195262 0.195262C0.455612 -0.0650874 0.878272 -0.0650874 1.13862 0.195262L5.66694 4.72358L10.1953 0.195262Z" fill="var(--fill-0, black)" fill-opacity="0.5"/>
</svg>
